# xmcd
#
# Track frame offsets:
#	150
#	21135
#	41380
#	64321
#	83449
#	103998
#	124704
#	145621
#	168721
#	191643
#	212455
#	236149
#	256471
#	273487
#	289242
#	308222
#
# Disc length: 4339 seconds
#
# Revision: 1
# Processed by: cddbd v1.5.2PL0 Copyright (c) Steve Scherf et al.
# Submitted via: audiograbber 1.83.01
#
DISCID=ea10f110
DTITLE=Mad Mark - Housworks- Sunlight Beach Party Vol2 CD1-Club Tunes
DYEAR=2012
DGENRE=House
TTITLE0=Guru Josh - Infinity 2012
TTITLE1=Timati and La La Land feat. Timbaland and Grooya - Not All About The Money
TTITLE2=Jeremy Carr - Just One Breath
TTITLE3=Remady and Manu-L feat. J-Son - Single Ladies
TTITLE4=Houseshaker and DJ Sign feat. P.S.Y. - Biddy Bitch
TTITLE5=Example - Kickstarts
TTITLE6=Timati feat. J-Son - Match Me
TTITLE7=Alesso vs. Keane - Silenced By The Night
TTITLE8=Timati feat. Mario Winans - Forever
TTITLE9=Avicii - Silhouettes
TTITLE10=DJ Antoine vs. Mad Mark - Broadway
TTITLE11=EDX fead. John Williams - Give It Up For Love
TTITLE12=Jenny Mc Kay - Unbreakable
TTITLE13=Timati feat. Kalenna - Sexy Bitch
TTITLE14=Die Atzen - Feiern? Okay!
TTITLE15=R.I.O. feat. Nicco - Party Shaker
EXTD=
EXTT0=
EXTT1=
EXTT2=
EXTT3=
EXTT4=
EXTT5=
EXTT6=
EXTT7=
EXTT8=
EXTT9=
EXTT10=
EXTT11=
EXTT12=
EXTT13=
EXTT14=
EXTT15=
PLAYORDER=
